<mxfile host="Electron" modified="2024-04-11T09:51:25.175Z" agent="Mozilla/5.0 (Windows NT 10.0; Win64; x64) AppleWebKit/537.36 (KHTML, like Gecko) draw.io/21.6.1 Chrome/112.0.5615.204 Electron/24.6.1 Safari/537.36" etag="LH-Umof0M4zTsI5ZxFo9" version="21.6.1" type="device">
  <diagram name="第 1 页" id="dPEF6ZXibk5AAm-VxSXz">
    <mxGraphModel dx="2058" dy="1188" grid="1" gridSize="10" guides="1" tooltips="1" connect="1" arrows="1" fold="1" page="1" pageScale="1" pageWidth="827" pageHeight="1169" math="1" shadow="0">
      <root>
        <mxCell id="0" />
        <mxCell id="1" parent="0" />
        <mxCell id="uGgpOJDT10K12-MG-oYg-9" style="edgeStyle=orthogonalEdgeStyle;rounded=0;orthogonalLoop=1;jettySize=auto;html=1;exitX=1;exitY=0.5;exitDx=0;exitDy=0;entryX=-0.001;entryY=0.944;entryDx=0;entryDy=0;entryPerimeter=0;strokeWidth=2;endSize=0;" parent="1" source="jbyKAua8zMZjnr2aoyAC-1" target="jbyKAua8zMZjnr2aoyAC-46" edge="1">
          <mxGeometry relative="1" as="geometry" />
        </mxCell>
        <mxCell id="jbyKAua8zMZjnr2aoyAC-1" value="&lt;b&gt;&lt;font style=&quot;font-size: 13px;&quot;&gt;SRU&lt;/font&gt;&lt;/b&gt;" style="rounded=0;whiteSpace=wrap;html=1;strokeWidth=3;" parent="1" vertex="1">
          <mxGeometry x="250" y="433" width="50" height="30" as="geometry" />
        </mxCell>
        <mxCell id="uGgpOJDT10K12-MG-oYg-11" style="edgeStyle=orthogonalEdgeStyle;rounded=0;orthogonalLoop=1;jettySize=auto;html=1;exitX=1;exitY=0.5;exitDx=0;exitDy=0;entryX=0.005;entryY=0.924;entryDx=0;entryDy=0;entryPerimeter=0;strokeWidth=2;endSize=0;" parent="1" source="jbyKAua8zMZjnr2aoyAC-2" target="jbyKAua8zMZjnr2aoyAC-68" edge="1">
          <mxGeometry relative="1" as="geometry" />
        </mxCell>
        <mxCell id="jbyKAua8zMZjnr2aoyAC-2" value="&lt;b&gt;&lt;font style=&quot;font-size: 13px;&quot;&gt;CRU&lt;/font&gt;&lt;/b&gt;" style="rounded=0;whiteSpace=wrap;html=1;rotation=0;strokeWidth=3;" parent="1" vertex="1">
          <mxGeometry x="530" y="433" width="50" height="30" as="geometry" />
        </mxCell>
        <mxCell id="qmUUbvtYqptl31vacQ3r-49" value="" style="group;fontStyle=1;fontSize=13;" parent="1" vertex="1" connectable="0">
          <mxGeometry x="475" y="604.9974041038859" width="245" height="450" as="geometry" />
        </mxCell>
        <mxCell id="qmUUbvtYqptl31vacQ3r-50" value="" style="endArrow=classic;html=1;rounded=0;entryX=0.5;entryY=0;entryDx=0;entryDy=0;fontStyle=1;fontSize=13;strokeWidth=2;endSize=0;" parent="qmUUbvtYqptl31vacQ3r-49" target="qmUUbvtYqptl31vacQ3r-52" edge="1">
          <mxGeometry width="50" height="50" relative="1" as="geometry">
            <mxPoint x="95" y="-9.997404103885856" as="sourcePoint" />
            <mxPoint x="52.50000000000023" y="70.8536585365855" as="targetPoint" />
            <Array as="points">
              <mxPoint x="95" y="30.002595896114144" />
              <mxPoint x="50" y="30.002595896114144" />
            </Array>
          </mxGeometry>
        </mxCell>
        <mxCell id="qmUUbvtYqptl31vacQ3r-51" style="edgeStyle=orthogonalEdgeStyle;rounded=0;orthogonalLoop=1;jettySize=auto;html=1;exitX=0.5;exitY=1;exitDx=0;exitDy=0;entryX=0.5;entryY=0;entryDx=0;entryDy=0;strokeWidth=2;endSize=0;" parent="qmUUbvtYqptl31vacQ3r-49" source="qmUUbvtYqptl31vacQ3r-52" target="qmUUbvtYqptl31vacQ3r-91" edge="1">
          <mxGeometry relative="1" as="geometry" />
        </mxCell>
        <mxCell id="qmUUbvtYqptl31vacQ3r-52" value="PWConv" style="rounded=1;whiteSpace=wrap;html=1;fillColor=#dae8fc;strokeColor=#6c8ebf;fontStyle=1;fontSize=13;" parent="qmUUbvtYqptl31vacQ3r-49" vertex="1">
          <mxGeometry x="20" y="70.85365853658537" width="60" height="21.95121951219512" as="geometry" />
        </mxCell>
        <mxCell id="qmUUbvtYqptl31vacQ3r-53" style="edgeStyle=orthogonalEdgeStyle;rounded=0;orthogonalLoop=1;jettySize=auto;html=1;exitX=0.5;exitY=1;exitDx=0;exitDy=0;entryX=0.5;entryY=0;entryDx=0;entryDy=0;endSize=0;strokeWidth=2;" parent="qmUUbvtYqptl31vacQ3r-49" source="qmUUbvtYqptl31vacQ3r-54" target="qmUUbvtYqptl31vacQ3r-94" edge="1">
          <mxGeometry relative="1" as="geometry" />
        </mxCell>
        <mxCell id="qmUUbvtYqptl31vacQ3r-54" value="PWConv" style="rounded=1;whiteSpace=wrap;html=1;fillColor=#dae8fc;strokeColor=#6c8ebf;fontStyle=1;fontSize=13;" parent="qmUUbvtYqptl31vacQ3r-49" vertex="1">
          <mxGeometry x="120" y="70.85365853658537" width="60" height="21.95121951219512" as="geometry" />
        </mxCell>
        <mxCell id="qmUUbvtYqptl31vacQ3r-56" value="$$a$$" style="text;html=1;align=center;verticalAlign=middle;resizable=0;points=[];autosize=1;strokeColor=none;fillColor=none;fontStyle=1;fontSize=13;" parent="qmUUbvtYqptl31vacQ3r-49" vertex="1">
          <mxGeometry x="130" y="34.99609756097561" width="60" height="30" as="geometry" />
        </mxCell>
        <mxCell id="qmUUbvtYqptl31vacQ3r-57" value="&lt;svg style=&quot;vertical-align: -0.566ex;&quot; xmlns:xlink=&quot;http://www.w3.org/1999/xlink&quot; viewBox=&quot;0 -750 3029.4 1000&quot; role=&quot;img&quot; height=&quot;2.262ex&quot; width=&quot;6.854ex&quot; xmlns=&quot;http://www.w3.org/2000/svg&quot;&gt;&lt;defs&gt;&lt;path d=&quot;M94 250Q94 319 104 381T127 488T164 576T202 643T244 695T277 729T302 750H315H319Q333 750 333 741Q333 738 316 720T275 667T226 581T184 443T167 250T184 58T225 -81T274 -167T316 -220T333 -241Q333 -250 318 -250H315H302L274 -226Q180 -141 137 -14T94 250Z&quot; id=&quot;MJX-3-TEX-N-28&quot;&gt;&lt;/path&gt;&lt;path d=&quot;M213 578L200 573Q186 568 160 563T102 556H83V602H102Q149 604 189 617T245 641T273 663Q275 666 285 666Q294 666 302 660V361L303 61Q310 54 315 52T339 48T401 46H427V0H416Q395 3 257 3Q121 3 100 0H88V46H114Q136 46 152 46T177 47T193 50T201 52T207 57T213 61V578Z&quot; id=&quot;MJX-3-TEX-N-31&quot;&gt;&lt;/path&gt;&lt;path d=&quot;M84 237T84 250T98 270H679Q694 262 694 250T679 230H98Q84 237 84 250Z&quot; id=&quot;MJX-3-TEX-N-2212&quot;&gt;&lt;/path&gt;&lt;path d=&quot;M33 157Q33 258 109 349T280 441Q331 441 370 392Q386 422 416 422Q429 422 439 414T449 394Q449 381 412 234T374 68Q374 43 381 35T402 26Q411 27 422 35Q443 55 463 131Q469 151 473 152Q475 153 483 153H487Q506 153 506 144Q506 138 501 117T481 63T449 13Q436 0 417 -8Q409 -10 393 -10Q359 -10 336 5T306 36L300 51Q299 52 296 50Q294 48 292 46Q233 -10 172 -10Q117 -10 75 30T33 157ZM351 328Q351 334 346 350T323 385T277 405Q242 405 210 374T160 293Q131 214 119 129Q119 126 119 118T118 106Q118 61 136 44T179 26Q217 26 254 59T298 110Q300 114 325 217T351 328Z&quot; id=&quot;MJX-3-TEX-I-1D44E&quot;&gt;&lt;/path&gt;&lt;path d=&quot;M60 749L64 750Q69 750 74 750H86L114 726Q208 641 251 514T294 250Q294 182 284 119T261 12T224 -76T186 -143T145 -194T113 -227T90 -246Q87 -249 86 -250H74Q66 -250 63 -250T58 -247T55 -238Q56 -237 66 -225Q221 -64 221 250T66 725Q56 737 55 738Q55 746 60 749Z&quot; id=&quot;MJX-3-TEX-N-29&quot;&gt;&lt;/path&gt;&lt;/defs&gt;&lt;g transform=&quot;scale(1,-1)&quot; stroke-width=&quot;0&quot; fill=&quot;currentColor&quot; stroke=&quot;currentColor&quot;&gt;&lt;g data-mml-node=&quot;math&quot;&gt;&lt;g data-mml-node=&quot;mo&quot;&gt;&lt;use xlink:href=&quot;#MJX-3-TEX-N-28&quot; data-c=&quot;28&quot;&gt;&lt;/use&gt;&lt;/g&gt;&lt;g transform=&quot;translate(389,0)&quot; data-mml-node=&quot;mn&quot;&gt;&lt;use xlink:href=&quot;#MJX-3-TEX-N-31&quot; data-c=&quot;31&quot;&gt;&lt;/use&gt;&lt;/g&gt;&lt;g transform=&quot;translate(1111.2,0)&quot; data-mml-node=&quot;mo&quot;&gt;&lt;use xlink:href=&quot;#MJX-3-TEX-N-2212&quot; data-c=&quot;2212&quot;&gt;&lt;/use&gt;&lt;/g&gt;&lt;g transform=&quot;translate(2111.4,0)&quot; data-mml-node=&quot;mi&quot;&gt;&lt;use xlink:href=&quot;#MJX-3-TEX-I-1D44E&quot; data-c=&quot;1D44E&quot;&gt;&lt;/use&gt;&lt;/g&gt;&lt;g transform=&quot;translate(2640.4,0)&quot; data-mml-node=&quot;mo&quot;&gt;&lt;use xlink:href=&quot;#MJX-3-TEX-N-29&quot; data-c=&quot;29&quot;&gt;&lt;/use&gt;&lt;/g&gt;&lt;/g&gt;&lt;/g&gt;&lt;/svg&gt;" style="text;html=1;align=center;verticalAlign=middle;resizable=0;points=[];autosize=1;strokeColor=none;fillColor=none;fontStyle=1;fontSize=13;" parent="qmUUbvtYqptl31vacQ3r-49" vertex="1">
          <mxGeometry x="-17.5" y="34.99609756097561" width="70" height="30" as="geometry" />
        </mxCell>
        <mxCell id="qmUUbvtYqptl31vacQ3r-58" value="concat" style="rounded=1;whiteSpace=wrap;html=1;fillColor=#f8cecc;strokeColor=#b85450;fontStyle=1;fontSize=13;" parent="qmUUbvtYqptl31vacQ3r-49" vertex="1">
          <mxGeometry x="26.870000000000005" y="202.56097560975616" width="46.25" height="21.95121951219512" as="geometry" />
        </mxCell>
        <mxCell id="qmUUbvtYqptl31vacQ3r-59" style="edgeStyle=orthogonalEdgeStyle;rounded=0;orthogonalLoop=1;jettySize=auto;html=1;exitX=0.5;exitY=1;exitDx=0;exitDy=0;entryX=0;entryY=0.5;entryDx=0;entryDy=0;fontStyle=1;fontSize=13;strokeWidth=2;endSize=0;" parent="qmUUbvtYqptl31vacQ3r-49" source="qmUUbvtYqptl31vacQ3r-60" target="qmUUbvtYqptl31vacQ3r-58" edge="1">
          <mxGeometry relative="1" as="geometry">
            <Array as="points">
              <mxPoint x="10" y="213.53658536585368" />
            </Array>
          </mxGeometry>
        </mxCell>
        <mxCell id="qmUUbvtYqptl31vacQ3r-60" value="PWConv" style="rounded=1;whiteSpace=wrap;html=1;fillColor=#dae8fc;strokeColor=#6c8ebf;fontStyle=1;fontSize=13;" parent="qmUUbvtYqptl31vacQ3r-49" vertex="1">
          <mxGeometry x="-20" y="147.68292682926833" width="60" height="21.95121951219512" as="geometry" />
        </mxCell>
        <mxCell id="qmUUbvtYqptl31vacQ3r-61" value="PWConv" style="rounded=1;whiteSpace=wrap;html=1;fillColor=#dae8fc;strokeColor=#6c8ebf;fontStyle=1;fontSize=13;" parent="qmUUbvtYqptl31vacQ3r-49" vertex="1">
          <mxGeometry x="75" y="147.68292682926833" width="65" height="21.95121951219512" as="geometry" />
        </mxCell>
        <mxCell id="qmUUbvtYqptl31vacQ3r-62" value="GWConv" style="rounded=1;whiteSpace=wrap;html=1;fillColor=#dae8fc;strokeColor=#6c8ebf;fontStyle=1;fontSize=13;" parent="qmUUbvtYqptl31vacQ3r-49" vertex="1">
          <mxGeometry x="160" y="147.68292682926833" width="65" height="21.95121951219512" as="geometry" />
        </mxCell>
        <mxCell id="qmUUbvtYqptl31vacQ3r-63" value="+" style="ellipse;whiteSpace=wrap;html=1;aspect=fixed;fontStyle=1;fontSize=13;" parent="qmUUbvtYqptl31vacQ3r-49" vertex="1">
          <mxGeometry x="140" y="202.56097560975616" width="19.565217391304348" height="19.565217391304348" as="geometry" />
        </mxCell>
        <mxCell id="qmUUbvtYqptl31vacQ3r-64" style="edgeStyle=orthogonalEdgeStyle;rounded=0;orthogonalLoop=1;jettySize=auto;html=1;exitX=0.5;exitY=1;exitDx=0;exitDy=0;entryX=0;entryY=0.5;entryDx=0;entryDy=0;fontStyle=1;fontSize=13;strokeWidth=2;endSize=0;" parent="qmUUbvtYqptl31vacQ3r-49" source="qmUUbvtYqptl31vacQ3r-61" target="qmUUbvtYqptl31vacQ3r-63" edge="1">
          <mxGeometry relative="1" as="geometry">
            <mxPoint x="123.75" y="191.58536585365854" as="targetPoint" />
            <Array as="points">
              <mxPoint x="108" y="212.3913043478261" />
            </Array>
          </mxGeometry>
        </mxCell>
        <mxCell id="qmUUbvtYqptl31vacQ3r-65" style="edgeStyle=orthogonalEdgeStyle;rounded=0;orthogonalLoop=1;jettySize=auto;html=1;exitX=0.5;exitY=1;exitDx=0;exitDy=0;entryX=1;entryY=0.5;entryDx=0;entryDy=0;fontStyle=1;fontSize=13;strokeWidth=2;endSize=0;" parent="qmUUbvtYqptl31vacQ3r-49" source="qmUUbvtYqptl31vacQ3r-62" target="qmUUbvtYqptl31vacQ3r-63" edge="1">
          <mxGeometry relative="1" as="geometry">
            <Array as="points">
              <mxPoint x="193" y="212.3913043478261" />
            </Array>
          </mxGeometry>
        </mxCell>
        <mxCell id="qmUUbvtYqptl31vacQ3r-66" value="FeatureX&lt;span style=&quot;font-size: 13px;&quot;&gt;&lt;sub style=&quot;font-size: 13px;&quot;&gt;1&lt;/sub&gt;&lt;/span&gt;" style="rounded=1;whiteSpace=wrap;html=1;fillColor=#e1d5e7;strokeColor=#9673a6;fontStyle=1;fontSize=13;" parent="qmUUbvtYqptl31vacQ3r-49" vertex="1">
          <mxGeometry x="15.020000000000003" y="257.9195652173913" width="69.97" height="21.47282608695652" as="geometry" />
        </mxCell>
        <mxCell id="qmUUbvtYqptl31vacQ3r-67" style="edgeStyle=orthogonalEdgeStyle;rounded=0;orthogonalLoop=1;jettySize=auto;html=1;exitX=0.5;exitY=1;exitDx=0;exitDy=0;entryX=0.5;entryY=0;entryDx=0;entryDy=0;fontStyle=1;fontSize=13;strokeWidth=2;endSize=0;" parent="qmUUbvtYqptl31vacQ3r-49" source="qmUUbvtYqptl31vacQ3r-58" target="qmUUbvtYqptl31vacQ3r-66" edge="1">
          <mxGeometry relative="1" as="geometry" />
        </mxCell>
        <mxCell id="qmUUbvtYqptl31vacQ3r-68" value="FeatureX&lt;span style=&quot;font-size: 13px;&quot;&gt;&lt;sub style=&quot;font-size: 13px;&quot;&gt;2&lt;/sub&gt;&lt;/span&gt;" style="rounded=1;whiteSpace=wrap;html=1;fillColor=#e1d5e7;strokeColor=#9673a6;fontStyle=1;fontSize=13;" parent="qmUUbvtYqptl31vacQ3r-49" vertex="1">
          <mxGeometry x="115.30000000000001" y="258.6336956521739" width="69.4" height="20.044565217391302" as="geometry" />
        </mxCell>
        <mxCell id="qmUUbvtYqptl31vacQ3r-69" value="" style="edgeStyle=orthogonalEdgeStyle;rounded=0;orthogonalLoop=1;jettySize=auto;html=1;entryX=0.5;entryY=0;entryDx=0;entryDy=0;fontStyle=1;fontSize=13;strokeWidth=2;endSize=0;" parent="qmUUbvtYqptl31vacQ3r-49" source="qmUUbvtYqptl31vacQ3r-63" target="qmUUbvtYqptl31vacQ3r-68" edge="1">
          <mxGeometry relative="1" as="geometry">
            <mxPoint x="150" y="224.51219512195127" as="targetPoint" />
          </mxGeometry>
        </mxCell>
        <mxCell id="qmUUbvtYqptl31vacQ3r-70" style="edgeStyle=orthogonalEdgeStyle;rounded=0;orthogonalLoop=1;jettySize=auto;html=1;exitX=0.5;exitY=1;exitDx=0;exitDy=0;entryX=0;entryY=0.5;entryDx=0;entryDy=0;fontStyle=1;fontSize=13;strokeWidth=2;endSize=0;" parent="qmUUbvtYqptl31vacQ3r-49" source="qmUUbvtYqptl31vacQ3r-66" edge="1">
          <mxGeometry relative="1" as="geometry">
            <mxPoint x="89.40999999998007" y="311.12407211028653" as="targetPoint" />
            <Array as="points">
              <mxPoint x="50" y="311.19565217391306" />
              <mxPoint x="89" y="311.19565217391306" />
            </Array>
          </mxGeometry>
        </mxCell>
        <mxCell id="qmUUbvtYqptl31vacQ3r-71" style="edgeStyle=orthogonalEdgeStyle;rounded=0;orthogonalLoop=1;jettySize=auto;html=1;exitX=0.5;exitY=1;exitDx=0;exitDy=0;entryX=1;entryY=0.5;entryDx=0;entryDy=0;fontStyle=1;fontSize=13;strokeWidth=2;endSize=0;" parent="qmUUbvtYqptl31vacQ3r-49" source="qmUUbvtYqptl31vacQ3r-68" edge="1">
          <mxGeometry relative="1" as="geometry">
            <mxPoint x="108.97521739132458" y="311.12407211028653" as="targetPoint" />
            <Array as="points">
              <mxPoint x="150" y="311.19565217391306" />
              <mxPoint x="109" y="311.19565217391306" />
            </Array>
          </mxGeometry>
        </mxCell>
        <mxCell id="qmUUbvtYqptl31vacQ3r-72" style="edgeStyle=orthogonalEdgeStyle;rounded=0;orthogonalLoop=1;jettySize=auto;html=1;exitX=0;exitY=0.5;exitDx=0;exitDy=0;entryX=1;entryY=0.5;entryDx=0;entryDy=0;fontStyle=1;fontSize=13;strokeWidth=2;endSize=0;" parent="qmUUbvtYqptl31vacQ3r-49" source="qmUUbvtYqptl31vacQ3r-74" target="qmUUbvtYqptl31vacQ3r-76" edge="1">
          <mxGeometry relative="1" as="geometry" />
        </mxCell>
        <mxCell id="qmUUbvtYqptl31vacQ3r-73" style="edgeStyle=orthogonalEdgeStyle;rounded=0;orthogonalLoop=1;jettySize=auto;html=1;exitX=1;exitY=0.5;exitDx=0;exitDy=0;entryX=0;entryY=0.5;entryDx=0;entryDy=0;fontStyle=1;fontSize=13;strokeWidth=2;endSize=0;" parent="qmUUbvtYqptl31vacQ3r-49" source="qmUUbvtYqptl31vacQ3r-74" target="qmUUbvtYqptl31vacQ3r-78" edge="1">
          <mxGeometry relative="1" as="geometry" />
        </mxCell>
        <mxCell id="qmUUbvtYqptl31vacQ3r-74" value="SoftMax" style="rounded=1;whiteSpace=wrap;html=1;fontStyle=1;fontSize=13;fillColor=#f5f5f5;fontColor=#333333;strokeColor=#666666;" parent="qmUUbvtYqptl31vacQ3r-49" vertex="1">
          <mxGeometry x="73.14" y="347.39130434782606" width="52.54" height="19.799999999999997" as="geometry" />
        </mxCell>
        <mxCell id="qmUUbvtYqptl31vacQ3r-75" style="edgeStyle=orthogonalEdgeStyle;rounded=0;orthogonalLoop=1;jettySize=auto;html=1;exitX=0.5;exitY=1;exitDx=0;exitDy=0;entryX=0;entryY=0.5;entryDx=0;entryDy=0;endSize=0;strokeWidth=2;fontStyle=1;fontSize=13;" parent="qmUUbvtYqptl31vacQ3r-49" source="qmUUbvtYqptl31vacQ3r-76" target="qmUUbvtYqptl31vacQ3r-80" edge="1">
          <mxGeometry relative="1" as="geometry" />
        </mxCell>
        <mxCell id="qmUUbvtYqptl31vacQ3r-76" value="x" style="ellipse;whiteSpace=wrap;html=1;aspect=fixed;fontStyle=1;fontSize=13;" parent="qmUUbvtYqptl31vacQ3r-49" vertex="1">
          <mxGeometry x="26.279999999999973" y="347.5086956521739" width="19.565217391304348" height="19.565217391304348" as="geometry" />
        </mxCell>
        <mxCell id="qmUUbvtYqptl31vacQ3r-77" style="edgeStyle=orthogonalEdgeStyle;rounded=0;orthogonalLoop=1;jettySize=auto;html=1;exitX=0;exitY=0.5;exitDx=0;exitDy=0;entryX=0;entryY=0.5;entryDx=0;entryDy=0;fontStyle=1;fontSize=13;strokeWidth=2;endSize=0;" parent="qmUUbvtYqptl31vacQ3r-49" source="qmUUbvtYqptl31vacQ3r-66" target="qmUUbvtYqptl31vacQ3r-76" edge="1">
          <mxGeometry relative="1" as="geometry" />
        </mxCell>
        <mxCell id="qmUUbvtYqptl31vacQ3r-78" value="x" style="ellipse;whiteSpace=wrap;html=1;aspect=fixed;fontStyle=1;fontSize=13;" parent="qmUUbvtYqptl31vacQ3r-49" vertex="1">
          <mxGeometry x="149.39999999999998" y="347.5086956521739" width="19.565217391304348" height="19.565217391304348" as="geometry" />
        </mxCell>
        <mxCell id="qmUUbvtYqptl31vacQ3r-79" style="edgeStyle=orthogonalEdgeStyle;rounded=0;orthogonalLoop=1;jettySize=auto;html=1;exitX=1;exitY=0.5;exitDx=0;exitDy=0;entryX=1;entryY=0.5;entryDx=0;entryDy=0;fontStyle=1;fontSize=13;endSize=0;strokeWidth=2;" parent="qmUUbvtYqptl31vacQ3r-49" source="qmUUbvtYqptl31vacQ3r-68" target="qmUUbvtYqptl31vacQ3r-78" edge="1">
          <mxGeometry relative="1" as="geometry" />
        </mxCell>
        <mxCell id="qmUUbvtYqptl31vacQ3r-80" value="+" style="ellipse;whiteSpace=wrap;html=1;aspect=fixed;fontStyle=1;fontSize=13;" parent="qmUUbvtYqptl31vacQ3r-49" vertex="1">
          <mxGeometry x="89.40999999999997" y="389.1463414634147" width="19.565217391304348" height="19.565217391304348" as="geometry" />
        </mxCell>
        <mxCell id="qmUUbvtYqptl31vacQ3r-81" style="edgeStyle=orthogonalEdgeStyle;rounded=0;orthogonalLoop=1;jettySize=auto;html=1;exitX=0.5;exitY=1;exitDx=0;exitDy=0;entryX=1;entryY=0.5;entryDx=0;entryDy=0;fontStyle=1;fontSize=13;strokeWidth=2;endSize=0;" parent="qmUUbvtYqptl31vacQ3r-49" source="qmUUbvtYqptl31vacQ3r-78" target="qmUUbvtYqptl31vacQ3r-80" edge="1">
          <mxGeometry relative="1" as="geometry" />
        </mxCell>
        <mxCell id="qmUUbvtYqptl31vacQ3r-82" value="x" style="ellipse;whiteSpace=wrap;html=1;aspect=fixed;strokeWidth=2;fontSize=13;fontStyle=1" parent="qmUUbvtYqptl31vacQ3r-49" vertex="1">
          <mxGeometry x="25.850000000000023" y="347.51" width="20" height="20" as="geometry" />
        </mxCell>
        <mxCell id="qmUUbvtYqptl31vacQ3r-83" value="x" style="ellipse;whiteSpace=wrap;html=1;aspect=fixed;strokeWidth=2;fontSize=13;fontStyle=1" parent="qmUUbvtYqptl31vacQ3r-49" vertex="1">
          <mxGeometry x="148.97000000000003" y="347.51043478260874" width="20" height="20" as="geometry" />
        </mxCell>
        <mxCell id="qmUUbvtYqptl31vacQ3r-84" style="edgeStyle=orthogonalEdgeStyle;rounded=0;orthogonalLoop=1;jettySize=auto;html=1;exitX=0.5;exitY=1;exitDx=0;exitDy=0;strokeWidth=2;endSize=0;" parent="qmUUbvtYqptl31vacQ3r-49" source="qmUUbvtYqptl31vacQ3r-85" edge="1">
          <mxGeometry relative="1" as="geometry">
            <mxPoint x="99" y="425" as="targetPoint" />
          </mxGeometry>
        </mxCell>
        <mxCell id="qmUUbvtYqptl31vacQ3r-85" value="+" style="ellipse;whiteSpace=wrap;html=1;aspect=fixed;strokeWidth=2;fontSize=13;fontStyle=1" parent="qmUUbvtYqptl31vacQ3r-49" vertex="1">
          <mxGeometry x="88.98000000000002" y="389.1504347826087" width="20" height="20" as="geometry" />
        </mxCell>
        <mxCell id="qmUUbvtYqptl31vacQ3r-86" value="+" style="ellipse;whiteSpace=wrap;html=1;aspect=fixed;strokeWidth=2;fontSize=13;fontStyle=1" parent="qmUUbvtYqptl31vacQ3r-49" vertex="1">
          <mxGeometry x="140" y="202.5604347826088" width="20" height="20" as="geometry" />
        </mxCell>
        <mxCell id="qmUUbvtYqptl31vacQ3r-87" style="edgeStyle=orthogonalEdgeStyle;rounded=0;orthogonalLoop=1;jettySize=auto;html=1;exitX=0.5;exitY=1;exitDx=0;exitDy=0;entryX=0.5;entryY=0;entryDx=0;entryDy=0;strokeWidth=2;endSize=0;" parent="qmUUbvtYqptl31vacQ3r-49" source="qmUUbvtYqptl31vacQ3r-88" target="qmUUbvtYqptl31vacQ3r-74" edge="1">
          <mxGeometry relative="1" as="geometry" />
        </mxCell>
        <mxCell id="qmUUbvtYqptl31vacQ3r-88" value="+" style="ellipse;whiteSpace=wrap;html=1;aspect=fixed;strokeWidth=2;fontSize=13;fontStyle=1;rotation=0;" parent="qmUUbvtYqptl31vacQ3r-49" vertex="1">
          <mxGeometry x="89.41" y="301" width="20" height="20" as="geometry" />
        </mxCell>
        <mxCell id="qmUUbvtYqptl31vacQ3r-89" style="edgeStyle=orthogonalEdgeStyle;rounded=0;orthogonalLoop=1;jettySize=auto;html=1;exitX=0.5;exitY=1;exitDx=0;exitDy=0;entryX=0.5;entryY=0.111;entryDx=0;entryDy=0;entryPerimeter=0;strokeWidth=2;endSize=0;" parent="qmUUbvtYqptl31vacQ3r-49" source="qmUUbvtYqptl31vacQ3r-91" target="qmUUbvtYqptl31vacQ3r-58" edge="1">
          <mxGeometry relative="1" as="geometry" />
        </mxCell>
        <mxCell id="qmUUbvtYqptl31vacQ3r-90" style="edgeStyle=orthogonalEdgeStyle;rounded=0;orthogonalLoop=1;jettySize=auto;html=1;exitX=0;exitY=0.5;exitDx=0;exitDy=0;entryX=0.5;entryY=0;entryDx=0;entryDy=0;strokeWidth=2;endSize=0;" parent="qmUUbvtYqptl31vacQ3r-49" source="qmUUbvtYqptl31vacQ3r-91" target="qmUUbvtYqptl31vacQ3r-60" edge="1">
          <mxGeometry relative="1" as="geometry" />
        </mxCell>
        <mxCell id="qmUUbvtYqptl31vacQ3r-91" value="X&lt;sub&gt;low&lt;/sub&gt;" style="rounded=1;whiteSpace=wrap;html=1;fillColor=#e1d5e7;strokeColor=#9673a6;fontStyle=1;fontSize=13;" parent="qmUUbvtYqptl31vacQ3r-49" vertex="1">
          <mxGeometry x="30.009999999999998" y="115" width="40" height="21.95" as="geometry" />
        </mxCell>
        <mxCell id="qmUUbvtYqptl31vacQ3r-92" style="edgeStyle=orthogonalEdgeStyle;rounded=0;orthogonalLoop=1;jettySize=auto;html=1;exitX=0;exitY=0.5;exitDx=0;exitDy=0;entryX=0.5;entryY=0;entryDx=0;entryDy=0;endSize=0;strokeWidth=2;" parent="qmUUbvtYqptl31vacQ3r-49" source="qmUUbvtYqptl31vacQ3r-94" target="qmUUbvtYqptl31vacQ3r-61" edge="1">
          <mxGeometry relative="1" as="geometry" />
        </mxCell>
        <mxCell id="qmUUbvtYqptl31vacQ3r-93" style="edgeStyle=orthogonalEdgeStyle;rounded=0;orthogonalLoop=1;jettySize=auto;html=1;exitX=1;exitY=0.5;exitDx=0;exitDy=0;entryX=0.5;entryY=0;entryDx=0;entryDy=0;endSize=0;strokeWidth=2;" parent="qmUUbvtYqptl31vacQ3r-49" source="qmUUbvtYqptl31vacQ3r-94" target="qmUUbvtYqptl31vacQ3r-62" edge="1">
          <mxGeometry relative="1" as="geometry" />
        </mxCell>
        <mxCell id="qmUUbvtYqptl31vacQ3r-94" value="X&lt;sub&gt;up&lt;/sub&gt;" style="rounded=1;whiteSpace=wrap;html=1;fillColor=#e1d5e7;strokeColor=#9673a6;fontStyle=1;fontSize=13;" parent="qmUUbvtYqptl31vacQ3r-49" vertex="1">
          <mxGeometry x="129.77999999999997" y="115" width="40" height="21.95" as="geometry" />
        </mxCell>
        <mxCell id="qmUUbvtYqptl31vacQ3r-95" value="$$Y$$" style="edgeLabel;html=1;align=center;verticalAlign=middle;resizable=0;points=[];fontStyle=1;fontSize=13;" parent="qmUUbvtYqptl31vacQ3r-49" vertex="1" connectable="0">
          <mxGeometry x="89.40901133299147" y="414.9957909192859" as="geometry">
            <mxPoint x="8" y="29" as="offset" />
          </mxGeometry>
        </mxCell>
        <mxCell id="uGgpOJDT10K12-MG-oYg-1" value="" style="group;rotation=0;" parent="1" vertex="1" connectable="0">
          <mxGeometry y="310" width="185" height="185" as="geometry" />
        </mxCell>
        <mxCell id="jbyKAua8zMZjnr2aoyAC-55" value="" style="group;fillColor=none;" parent="uGgpOJDT10K12-MG-oYg-1" vertex="1" connectable="0">
          <mxGeometry x="58.86363636363636" y="80.17241379310342" width="117.72727272727272" height="105.82758620689653" as="geometry" />
        </mxCell>
        <mxCell id="jbyKAua8zMZjnr2aoyAC-56" value="" style="rounded=0;whiteSpace=wrap;html=1;fillColor=#b1ddf0;strokeColor=#10739e;" parent="jbyKAua8zMZjnr2aoyAC-55" vertex="1">
          <mxGeometry width="67.27272727272727" height="60.93103448275861" as="geometry" />
        </mxCell>
        <mxCell id="jbyKAua8zMZjnr2aoyAC-57" value="" style="rounded=0;whiteSpace=wrap;html=1;rotation=0;fillColor=#b1ddf0;strokeColor=#10739e;" parent="jbyKAua8zMZjnr2aoyAC-55" vertex="1">
          <mxGeometry x="8.409090909090908" y="6.413793103448275" width="67.27272727272727" height="60.93103448275861" as="geometry" />
        </mxCell>
        <mxCell id="jbyKAua8zMZjnr2aoyAC-58" value="" style="rounded=0;whiteSpace=wrap;html=1;rotation=0;fillColor=#b1ddf0;strokeColor=#10739e;" parent="jbyKAua8zMZjnr2aoyAC-55" vertex="1">
          <mxGeometry x="16.818181818181817" y="12.82758620689655" width="67.27272727272727" height="60.93103448275861" as="geometry" />
        </mxCell>
        <mxCell id="jbyKAua8zMZjnr2aoyAC-59" value="" style="rounded=0;whiteSpace=wrap;html=1;rotation=0;fillColor=#b1ddf0;strokeColor=#10739e;" parent="jbyKAua8zMZjnr2aoyAC-55" vertex="1">
          <mxGeometry x="25.227272727272734" y="20.84482758620689" width="67.27272727272727" height="60.93103448275861" as="geometry" />
        </mxCell>
        <mxCell id="jbyKAua8zMZjnr2aoyAC-60" value="" style="rounded=0;whiteSpace=wrap;html=1;rotation=0;fillColor=#b1ddf0;strokeColor=#10739e;" parent="jbyKAua8zMZjnr2aoyAC-55" vertex="1">
          <mxGeometry x="33.63636363636363" y="28.862068965517235" width="67.27272727272727" height="60.93103448275861" as="geometry" />
        </mxCell>
        <mxCell id="jbyKAua8zMZjnr2aoyAC-61" value="" style="rounded=0;whiteSpace=wrap;html=1;rotation=0;fillColor=#b1ddf0;strokeColor=#10739e;" parent="jbyKAua8zMZjnr2aoyAC-55" vertex="1">
          <mxGeometry x="42.04545454545454" y="36.87931034482759" width="67.27272727272727" height="60.93103448275861" as="geometry" />
        </mxCell>
        <mxCell id="jbyKAua8zMZjnr2aoyAC-62" value="" style="rounded=0;whiteSpace=wrap;html=1;rotation=0;fillColor=#b1ddf0;strokeColor=#10739e;" parent="jbyKAua8zMZjnr2aoyAC-55" vertex="1">
          <mxGeometry x="50.45454545454547" y="44.89655172413792" width="67.27272727272727" height="60.93103448275861" as="geometry" />
        </mxCell>
        <mxCell id="jbyKAua8zMZjnr2aoyAC-89" value="Input&lt;br style=&quot;font-size: 13px;&quot;&gt;Feature $$X$$" style="text;html=1;align=center;verticalAlign=middle;resizable=0;points=[];autosize=1;strokeColor=none;fillColor=none;fontSize=13;fontStyle=1" parent="uGgpOJDT10K12-MG-oYg-1" vertex="1">
          <mxGeometry x="40" y="25" width="110" height="40" as="geometry" />
        </mxCell>
        <mxCell id="uGgpOJDT10K12-MG-oYg-2" value="" style="group;rotation=0;" parent="1" vertex="1" connectable="0">
          <mxGeometry x="290" y="310" width="185" height="185" as="geometry" />
        </mxCell>
        <mxCell id="jbyKAua8zMZjnr2aoyAC-53" value="" style="group;rotation=0;" parent="uGgpOJDT10K12-MG-oYg-2" vertex="1" connectable="0">
          <mxGeometry x="71.42857142857144" y="80.17241379310344" width="100" height="105.82758620689654" as="geometry" />
        </mxCell>
        <mxCell id="jbyKAua8zMZjnr2aoyAC-46" value="" style="rounded=0;whiteSpace=wrap;html=1;fillColor=#dae8fc;strokeColor=#6c8ebf;" parent="jbyKAua8zMZjnr2aoyAC-53" vertex="1">
          <mxGeometry width="57.142857142857146" height="60.931034482758626" as="geometry" />
        </mxCell>
        <mxCell id="jbyKAua8zMZjnr2aoyAC-47" value="" style="rounded=0;whiteSpace=wrap;html=1;rotation=0;fillColor=#bac8d3;strokeColor=#23445d;" parent="jbyKAua8zMZjnr2aoyAC-53" vertex="1">
          <mxGeometry x="7.142857142857143" y="6.413793103448276" width="57.142857142857146" height="60.931034482758626" as="geometry" />
        </mxCell>
        <mxCell id="jbyKAua8zMZjnr2aoyAC-48" value="" style="rounded=0;whiteSpace=wrap;html=1;rotation=0;fillColor=#dae8fc;strokeColor=#6c8ebf;" parent="jbyKAua8zMZjnr2aoyAC-53" vertex="1">
          <mxGeometry x="14.285714285714286" y="12.827586206896552" width="57.142857142857146" height="60.931034482758626" as="geometry" />
        </mxCell>
        <mxCell id="jbyKAua8zMZjnr2aoyAC-49" value="" style="rounded=0;whiteSpace=wrap;html=1;rotation=0;fillColor=#bac8d3;strokeColor=#23445d;" parent="jbyKAua8zMZjnr2aoyAC-53" vertex="1">
          <mxGeometry x="21.42857142857143" y="20.844827586206897" width="57.142857142857146" height="60.931034482758626" as="geometry" />
        </mxCell>
        <mxCell id="jbyKAua8zMZjnr2aoyAC-50" value="" style="rounded=0;whiteSpace=wrap;html=1;rotation=0;fillColor=#dae8fc;strokeColor=#6c8ebf;" parent="jbyKAua8zMZjnr2aoyAC-53" vertex="1">
          <mxGeometry x="28.571428571428573" y="28.862068965517242" width="57.142857142857146" height="60.931034482758626" as="geometry" />
        </mxCell>
        <mxCell id="jbyKAua8zMZjnr2aoyAC-51" value="" style="rounded=0;whiteSpace=wrap;html=1;rotation=0;fillColor=#bac8d3;strokeColor=#23445d;" parent="jbyKAua8zMZjnr2aoyAC-53" vertex="1">
          <mxGeometry x="35.71428571428572" y="36.87931034482759" width="57.142857142857146" height="60.931034482758626" as="geometry" />
        </mxCell>
        <mxCell id="jbyKAua8zMZjnr2aoyAC-52" value="" style="rounded=0;whiteSpace=wrap;html=1;rotation=0;fillColor=#dae8fc;strokeColor=#6c8ebf;" parent="jbyKAua8zMZjnr2aoyAC-53" vertex="1">
          <mxGeometry x="42.85714285714286" y="44.89655172413793" width="57.142857142857146" height="60.931034482758626" as="geometry" />
        </mxCell>
        <mxCell id="jbyKAua8zMZjnr2aoyAC-90" value="Spatial-Refined&lt;br style=&quot;font-size: 13px;&quot;&gt;Feature $$X^{w}$$" style="text;html=1;align=center;verticalAlign=middle;resizable=0;points=[];autosize=1;strokeColor=none;fillColor=none;fontSize=13;fontStyle=1" parent="uGgpOJDT10K12-MG-oYg-2" vertex="1">
          <mxGeometry x="40" y="25" width="140" height="40" as="geometry" />
        </mxCell>
        <mxCell id="uGgpOJDT10K12-MG-oYg-3" value="" style="group;rotation=0;" parent="1" vertex="1" connectable="0">
          <mxGeometry x="580" y="315" width="240" height="215" as="geometry" />
        </mxCell>
        <mxCell id="jbyKAua8zMZjnr2aoyAC-67" value="" style="group" parent="uGgpOJDT10K12-MG-oYg-3" vertex="1" connectable="0">
          <mxGeometry x="55.88357588357587" y="78.14538676607641" width="97.79625779625779" height="103.15191053122086" as="geometry" />
        </mxCell>
        <mxCell id="jbyKAua8zMZjnr2aoyAC-68" value="" style="rounded=0;whiteSpace=wrap;html=1;fillColor=#d0cee2;strokeColor=#56517e;" parent="jbyKAua8zMZjnr2aoyAC-67" vertex="1">
          <mxGeometry width="55.88357588357587" height="59.39049394221808" as="geometry" />
        </mxCell>
        <mxCell id="jbyKAua8zMZjnr2aoyAC-69" value="" style="rounded=0;whiteSpace=wrap;html=1;rotation=0;fillColor=#647687;strokeColor=#314354;fontColor=#ffffff;" parent="jbyKAua8zMZjnr2aoyAC-67" vertex="1">
          <mxGeometry x="6.985446985446984" y="6.2516309412861135" width="55.88357588357587" height="59.39049394221808" as="geometry" />
        </mxCell>
        <mxCell id="jbyKAua8zMZjnr2aoyAC-70" value="" style="rounded=0;whiteSpace=wrap;html=1;rotation=0;fillColor=#d0cee2;strokeColor=#56517e;" parent="jbyKAua8zMZjnr2aoyAC-67" vertex="1">
          <mxGeometry x="13.970893970893968" y="12.503261882572227" width="55.88357588357587" height="59.39049394221808" as="geometry" />
        </mxCell>
        <mxCell id="jbyKAua8zMZjnr2aoyAC-71" value="" style="rounded=0;whiteSpace=wrap;html=1;rotation=0;fillColor=#647687;strokeColor=#314354;fontColor=#ffffff;" parent="jbyKAua8zMZjnr2aoyAC-67" vertex="1">
          <mxGeometry x="20.956340956340956" y="20.31780055917987" width="55.88357588357587" height="59.39049394221808" as="geometry" />
        </mxCell>
        <mxCell id="jbyKAua8zMZjnr2aoyAC-72" value="" style="rounded=0;whiteSpace=wrap;html=1;rotation=0;fillColor=#d0cee2;strokeColor=#56517e;" parent="jbyKAua8zMZjnr2aoyAC-67" vertex="1">
          <mxGeometry x="27.941787941787936" y="28.13233923578751" width="55.88357588357587" height="59.39049394221808" as="geometry" />
        </mxCell>
        <mxCell id="jbyKAua8zMZjnr2aoyAC-73" value="" style="rounded=0;whiteSpace=wrap;html=1;rotation=0;fillColor=#647687;strokeColor=#314354;fontColor=#ffffff;" parent="jbyKAua8zMZjnr2aoyAC-67" vertex="1">
          <mxGeometry x="34.92723492723493" y="35.94687791239515" width="55.88357588357587" height="59.39049394221808" as="geometry" />
        </mxCell>
        <mxCell id="jbyKAua8zMZjnr2aoyAC-74" value="" style="rounded=0;whiteSpace=wrap;html=1;rotation=0;fillColor=#d0cee2;strokeColor=#56517e;" parent="jbyKAua8zMZjnr2aoyAC-67" vertex="1">
          <mxGeometry x="41.91268191268191" y="43.76141658900279" width="55.88357588357587" height="59.39049394221808" as="geometry" />
        </mxCell>
        <mxCell id="jbyKAua8zMZjnr2aoyAC-91" value="Channel-Refined&lt;br style=&quot;font-size: 13px;&quot;&gt;Feature $$Y$$" style="text;html=1;align=center;verticalAlign=middle;resizable=0;points=[];autosize=1;strokeColor=none;fillColor=none;fontSize=13;fontStyle=1" parent="uGgpOJDT10K12-MG-oYg-3" vertex="1">
          <mxGeometry x="23" y="20" width="130" height="40" as="geometry" />
        </mxCell>
        <mxCell id="uGgpOJDT10K12-MG-oYg-8" style="edgeStyle=orthogonalEdgeStyle;rounded=0;orthogonalLoop=1;jettySize=auto;html=1;exitX=1.002;exitY=0.216;exitDx=0;exitDy=0;entryX=0;entryY=0.5;entryDx=0;entryDy=0;exitPerimeter=0;strokeWidth=2;endSize=0;" parent="1" source="jbyKAua8zMZjnr2aoyAC-62" target="jbyKAua8zMZjnr2aoyAC-1" edge="1">
          <mxGeometry relative="1" as="geometry" />
        </mxCell>
        <mxCell id="uGgpOJDT10K12-MG-oYg-10" style="edgeStyle=orthogonalEdgeStyle;rounded=0;orthogonalLoop=1;jettySize=auto;html=1;exitX=1;exitY=0.224;exitDx=0;exitDy=0;entryX=0;entryY=0.5;entryDx=0;entryDy=0;exitPerimeter=0;strokeWidth=2;endSize=0;" parent="1" source="jbyKAua8zMZjnr2aoyAC-52" target="jbyKAua8zMZjnr2aoyAC-2" edge="1">
          <mxGeometry relative="1" as="geometry" />
        </mxCell>
        <mxCell id="qmUUbvtYqptl31vacQ3r-1" value="" style="group;strokeWidth=2;fontSize=13;fontStyle=1" parent="1" vertex="1" connectable="0">
          <mxGeometry x="100" y="575" width="277.5" height="480" as="geometry" />
        </mxCell>
        <mxCell id="qmUUbvtYqptl31vacQ3r-2" style="edgeStyle=orthogonalEdgeStyle;rounded=0;orthogonalLoop=1;jettySize=auto;html=1;exitX=0.5;exitY=0;exitDx=0;exitDy=0;entryX=0;entryY=0.5;entryDx=0;entryDy=0;strokeWidth=2;endSize=0;" parent="qmUUbvtYqptl31vacQ3r-1" source="qmUUbvtYqptl31vacQ3r-4" target="qmUUbvtYqptl31vacQ3r-14" edge="1">
          <mxGeometry relative="1" as="geometry">
            <Array as="points">
              <mxPoint x="139" y="53" />
              <mxPoint x="30" y="53" />
              <mxPoint x="30" y="250" />
            </Array>
          </mxGeometry>
        </mxCell>
        <mxCell id="qmUUbvtYqptl31vacQ3r-3" style="edgeStyle=orthogonalEdgeStyle;rounded=0;orthogonalLoop=1;jettySize=auto;html=1;exitX=0.5;exitY=0;exitDx=0;exitDy=0;entryX=1;entryY=0.5;entryDx=0;entryDy=0;strokeWidth=2;endSize=0;" parent="qmUUbvtYqptl31vacQ3r-1" source="qmUUbvtYqptl31vacQ3r-4" target="qmUUbvtYqptl31vacQ3r-16" edge="1">
          <mxGeometry relative="1" as="geometry">
            <Array as="points">
              <mxPoint x="139" y="53" />
              <mxPoint x="240" y="53" />
              <mxPoint x="240" y="250" />
            </Array>
          </mxGeometry>
        </mxCell>
        <mxCell id="qmUUbvtYqptl31vacQ3r-4" value="Group Normalization" style="rounded=1;whiteSpace=wrap;html=1;fillColor=#dae8fc;strokeColor=#6c8ebf;strokeWidth=2;fontSize=13;fontStyle=1" parent="qmUUbvtYqptl31vacQ3r-1" vertex="1">
          <mxGeometry x="68.75" y="73.04347826086958" width="140" height="20.869565217391308" as="geometry" />
        </mxCell>
        <mxCell id="qmUUbvtYqptl31vacQ3r-5" value="Distribution layer" style="rounded=1;whiteSpace=wrap;html=1;fillColor=#dae8fc;strokeColor=#6c8ebf;strokeWidth=2;fontSize=13;fontStyle=1" parent="qmUUbvtYqptl31vacQ3r-1" vertex="1">
          <mxGeometry x="78.75" y="114.78260869565216" width="120" height="20.869565217391308" as="geometry" />
        </mxCell>
        <mxCell id="qmUUbvtYqptl31vacQ3r-6" style="edgeStyle=orthogonalEdgeStyle;rounded=0;orthogonalLoop=1;jettySize=auto;html=1;exitX=0.5;exitY=1;exitDx=0;exitDy=0;entryX=0.5;entryY=0;entryDx=0;entryDy=0;strokeWidth=2;fontSize=13;fontStyle=1;endSize=0;" parent="qmUUbvtYqptl31vacQ3r-1" source="qmUUbvtYqptl31vacQ3r-4" target="qmUUbvtYqptl31vacQ3r-5" edge="1">
          <mxGeometry relative="1" as="geometry" />
        </mxCell>
        <mxCell id="qmUUbvtYqptl31vacQ3r-7" value="Sigmoid" style="rounded=1;whiteSpace=wrap;html=1;fillColor=#f5f5f5;fontColor=#333333;strokeColor=#666666;strokeWidth=2;fontSize=13;fontStyle=1" parent="qmUUbvtYqptl31vacQ3r-1" vertex="1">
          <mxGeometry x="103.75" y="198.2608695652174" width="70" height="20.869565217391308" as="geometry" />
        </mxCell>
        <mxCell id="qmUUbvtYqptl31vacQ3r-8" style="edgeStyle=orthogonalEdgeStyle;rounded=0;orthogonalLoop=1;jettySize=auto;html=1;exitX=0.5;exitY=1;exitDx=0;exitDy=0;entryX=0.5;entryY=0;entryDx=0;entryDy=0;strokeWidth=2;fontSize=13;fontStyle=1;endSize=0;" parent="qmUUbvtYqptl31vacQ3r-1" source="qmUUbvtYqptl31vacQ3r-9" target="qmUUbvtYqptl31vacQ3r-7" edge="1">
          <mxGeometry relative="1" as="geometry" />
        </mxCell>
        <mxCell id="qmUUbvtYqptl31vacQ3r-9" value="x" style="ellipse;whiteSpace=wrap;html=1;aspect=fixed;strokeWidth=2;fontSize=13;fontStyle=1" parent="qmUUbvtYqptl31vacQ3r-1" vertex="1">
          <mxGeometry x="128.75" y="156.52173913043475" width="19.591836734693878" height="19.591836734693878" as="geometry" />
        </mxCell>
        <mxCell id="qmUUbvtYqptl31vacQ3r-10" style="edgeStyle=orthogonalEdgeStyle;rounded=0;orthogonalLoop=1;jettySize=auto;html=1;exitX=0;exitY=0.5;exitDx=0;exitDy=0;entryX=0;entryY=0.5;entryDx=0;entryDy=0;strokeWidth=2;fontSize=13;fontStyle=1;endSize=0;" parent="qmUUbvtYqptl31vacQ3r-1" source="qmUUbvtYqptl31vacQ3r-4" target="qmUUbvtYqptl31vacQ3r-9" edge="1">
          <mxGeometry relative="1" as="geometry" />
        </mxCell>
        <mxCell id="qmUUbvtYqptl31vacQ3r-11" style="edgeStyle=orthogonalEdgeStyle;rounded=0;orthogonalLoop=1;jettySize=auto;html=1;exitX=0.5;exitY=1;exitDx=0;exitDy=0;entryX=0.5;entryY=0;entryDx=0;entryDy=0;strokeWidth=2;fontSize=13;fontStyle=1;endSize=0;" parent="qmUUbvtYqptl31vacQ3r-1" source="qmUUbvtYqptl31vacQ3r-5" target="qmUUbvtYqptl31vacQ3r-9" edge="1">
          <mxGeometry relative="1" as="geometry" />
        </mxCell>
        <mxCell id="qmUUbvtYqptl31vacQ3r-12" value="Threshold" style="rounded=1;whiteSpace=wrap;html=1;fillColor=#f5f5f5;fontColor=#333333;strokeColor=#666666;strokeWidth=2;fontSize=13;fontStyle=1" parent="qmUUbvtYqptl31vacQ3r-1" vertex="1">
          <mxGeometry x="103.75" y="239.99999999999997" width="70" height="20.869565217391308" as="geometry" />
        </mxCell>
        <mxCell id="qmUUbvtYqptl31vacQ3r-13" style="edgeStyle=orthogonalEdgeStyle;rounded=0;orthogonalLoop=1;jettySize=auto;html=1;exitX=0.5;exitY=1;exitDx=0;exitDy=0;entryX=0.5;entryY=0;entryDx=0;entryDy=0;strokeWidth=2;fontSize=13;fontStyle=1;endSize=0;" parent="qmUUbvtYqptl31vacQ3r-1" source="qmUUbvtYqptl31vacQ3r-7" target="qmUUbvtYqptl31vacQ3r-12" edge="1">
          <mxGeometry relative="1" as="geometry" />
        </mxCell>
        <mxCell id="qmUUbvtYqptl31vacQ3r-14" value="x" style="ellipse;whiteSpace=wrap;html=1;aspect=fixed;strokeWidth=2;fontSize=13;fontStyle=1" parent="qmUUbvtYqptl31vacQ3r-1" vertex="1">
          <mxGeometry x="58.75" y="239.99999999999997" width="19.591836734693878" height="19.591836734693878" as="geometry" />
        </mxCell>
        <mxCell id="qmUUbvtYqptl31vacQ3r-15" style="edgeStyle=orthogonalEdgeStyle;rounded=0;orthogonalLoop=1;jettySize=auto;html=1;exitX=0;exitY=0.5;exitDx=0;exitDy=0;entryX=1;entryY=0.5;entryDx=0;entryDy=0;strokeWidth=2;fontSize=13;fontStyle=1;endSize=0;" parent="qmUUbvtYqptl31vacQ3r-1" source="qmUUbvtYqptl31vacQ3r-12" target="qmUUbvtYqptl31vacQ3r-14" edge="1">
          <mxGeometry relative="1" as="geometry" />
        </mxCell>
        <mxCell id="qmUUbvtYqptl31vacQ3r-16" value="x" style="ellipse;whiteSpace=wrap;html=1;aspect=fixed;strokeWidth=2;fontSize=13;fontStyle=1" parent="qmUUbvtYqptl31vacQ3r-1" vertex="1">
          <mxGeometry x="198.75" y="239.99999999999997" width="19.591836734693878" height="19.591836734693878" as="geometry" />
        </mxCell>
        <mxCell id="qmUUbvtYqptl31vacQ3r-17" style="edgeStyle=orthogonalEdgeStyle;rounded=0;orthogonalLoop=1;jettySize=auto;html=1;exitX=1;exitY=0.5;exitDx=0;exitDy=0;entryX=0;entryY=0.5;entryDx=0;entryDy=0;strokeWidth=2;fontSize=13;fontStyle=1;endSize=0;" parent="qmUUbvtYqptl31vacQ3r-1" source="qmUUbvtYqptl31vacQ3r-12" target="qmUUbvtYqptl31vacQ3r-16" edge="1">
          <mxGeometry relative="1" as="geometry" />
        </mxCell>
        <mxCell id="qmUUbvtYqptl31vacQ3r-18" value="split" style="rounded=1;whiteSpace=wrap;html=1;strokeWidth=2;fontSize=13;fontStyle=1" parent="qmUUbvtYqptl31vacQ3r-1" vertex="1">
          <mxGeometry x="52.5" y="281.7391304347825" width="32.5" height="20.869565217391308" as="geometry" />
        </mxCell>
        <mxCell id="qmUUbvtYqptl31vacQ3r-19" value="" style="edgeStyle=orthogonalEdgeStyle;rounded=0;orthogonalLoop=1;jettySize=auto;html=1;strokeWidth=2;fontSize=13;fontStyle=1;endSize=0;" parent="qmUUbvtYqptl31vacQ3r-1" source="qmUUbvtYqptl31vacQ3r-14" target="qmUUbvtYqptl31vacQ3r-18" edge="1">
          <mxGeometry relative="1" as="geometry" />
        </mxCell>
        <mxCell id="qmUUbvtYqptl31vacQ3r-20" value="split" style="rounded=1;whiteSpace=wrap;html=1;strokeWidth=2;fontSize=13;fontStyle=1" parent="qmUUbvtYqptl31vacQ3r-1" vertex="1">
          <mxGeometry x="192.5" y="281.7391304347825" width="32.5" height="20.869565217391308" as="geometry" />
        </mxCell>
        <mxCell id="qmUUbvtYqptl31vacQ3r-21" value="" style="edgeStyle=orthogonalEdgeStyle;rounded=0;orthogonalLoop=1;jettySize=auto;html=1;strokeWidth=2;fontSize=13;fontStyle=1;endSize=0;" parent="qmUUbvtYqptl31vacQ3r-1" source="qmUUbvtYqptl31vacQ3r-16" target="qmUUbvtYqptl31vacQ3r-20" edge="1">
          <mxGeometry relative="1" as="geometry" />
        </mxCell>
        <mxCell id="qmUUbvtYqptl31vacQ3r-22" value="Feature1" style="rounded=1;whiteSpace=wrap;html=1;fillColor=#f5f5f5;fontColor=#333333;strokeColor=#666666;strokeWidth=2;fontSize=13;fontStyle=1" parent="qmUUbvtYqptl31vacQ3r-1" vertex="1">
          <mxGeometry y="333.91304347826093" width="58.75" height="20.869565217391308" as="geometry" />
        </mxCell>
        <mxCell id="qmUUbvtYqptl31vacQ3r-23" style="edgeStyle=orthogonalEdgeStyle;rounded=0;orthogonalLoop=1;jettySize=auto;html=1;exitX=0.5;exitY=1;exitDx=0;exitDy=0;entryX=0.5;entryY=0;entryDx=0;entryDy=0;strokeWidth=2;fontSize=13;fontStyle=1;endSize=0;" parent="qmUUbvtYqptl31vacQ3r-1" source="qmUUbvtYqptl31vacQ3r-18" target="qmUUbvtYqptl31vacQ3r-22" edge="1">
          <mxGeometry relative="1" as="geometry">
            <Array as="points">
              <mxPoint x="68.75" y="313.0434782608695" />
              <mxPoint x="29.75" y="313.0434782608695" />
            </Array>
          </mxGeometry>
        </mxCell>
        <mxCell id="qmUUbvtYqptl31vacQ3r-24" value="+" style="ellipse;whiteSpace=wrap;html=1;aspect=fixed;strokeWidth=2;fontSize=13;fontStyle=1" parent="qmUUbvtYqptl31vacQ3r-1" vertex="1">
          <mxGeometry x="198.75" y="386.0869565217392" width="19.591836734693878" height="19.591836734693878" as="geometry" />
        </mxCell>
        <mxCell id="qmUUbvtYqptl31vacQ3r-25" value="+" style="ellipse;whiteSpace=wrap;html=1;aspect=fixed;strokeWidth=2;fontSize=13;fontStyle=1" parent="qmUUbvtYqptl31vacQ3r-1" vertex="1">
          <mxGeometry x="58.75" y="375.6521739130434" width="19.591836734693878" height="19.591836734693878" as="geometry" />
        </mxCell>
        <mxCell id="qmUUbvtYqptl31vacQ3r-26" style="edgeStyle=orthogonalEdgeStyle;rounded=0;orthogonalLoop=1;jettySize=auto;html=1;exitX=0.5;exitY=1;exitDx=0;exitDy=0;entryX=0;entryY=0.5;entryDx=0;entryDy=0;strokeWidth=2;fontSize=13;fontStyle=1;endSize=0;" parent="qmUUbvtYqptl31vacQ3r-1" source="qmUUbvtYqptl31vacQ3r-22" target="qmUUbvtYqptl31vacQ3r-25" edge="1">
          <mxGeometry relative="1" as="geometry" />
        </mxCell>
        <mxCell id="qmUUbvtYqptl31vacQ3r-28" value="concat" style="rounded=1;whiteSpace=wrap;html=1;fillColor=#f8cecc;strokeColor=#b85450;strokeWidth=2;fontSize=13;fontStyle=1" parent="qmUUbvtYqptl31vacQ3r-1" vertex="1">
          <mxGeometry x="108.75999999999999" y="417.391304347826" width="56.25" height="20.869565217391308" as="geometry" />
        </mxCell>
        <mxCell id="qmUUbvtYqptl31vacQ3r-29" style="edgeStyle=orthogonalEdgeStyle;rounded=0;orthogonalLoop=1;jettySize=auto;html=1;exitX=0.5;exitY=1;exitDx=0;exitDy=0;entryX=1;entryY=0.5;entryDx=0;entryDy=0;strokeWidth=2;fontSize=13;fontStyle=1;endSize=0;" parent="qmUUbvtYqptl31vacQ3r-1" source="qmUUbvtYqptl31vacQ3r-24" target="qmUUbvtYqptl31vacQ3r-28" edge="1">
          <mxGeometry relative="1" as="geometry" />
        </mxCell>
        <mxCell id="qmUUbvtYqptl31vacQ3r-30" style="edgeStyle=orthogonalEdgeStyle;rounded=0;orthogonalLoop=1;jettySize=auto;html=1;exitX=0.5;exitY=1;exitDx=0;exitDy=0;entryX=0;entryY=0.5;entryDx=0;entryDy=0;strokeWidth=2;fontSize=13;fontStyle=1;endSize=0;" parent="qmUUbvtYqptl31vacQ3r-1" source="qmUUbvtYqptl31vacQ3r-25" target="qmUUbvtYqptl31vacQ3r-28" edge="1">
          <mxGeometry relative="1" as="geometry" />
        </mxCell>
        <mxCell id="qmUUbvtYqptl31vacQ3r-31" style="edgeStyle=orthogonalEdgeStyle;rounded=0;orthogonalLoop=1;jettySize=auto;html=1;exitX=0.5;exitY=1;exitDx=0;exitDy=0;entryX=1;entryY=0.5;entryDx=0;entryDy=0;strokeWidth=2;fontSize=13;fontStyle=1;endSize=0;" parent="qmUUbvtYqptl31vacQ3r-1" source="qmUUbvtYqptl31vacQ3r-32" target="qmUUbvtYqptl31vacQ3r-25" edge="1">
          <mxGeometry relative="1" as="geometry" />
        </mxCell>
        <mxCell id="qmUUbvtYqptl31vacQ3r-32" value="Feature3" style="rounded=1;whiteSpace=wrap;html=1;fillColor=#f5f5f5;fontColor=#333333;strokeColor=#666666;strokeWidth=2;fontSize=13;fontStyle=1" parent="qmUUbvtYqptl31vacQ3r-1" vertex="1">
          <mxGeometry x="148.75" y="333.91304347826093" width="58.75" height="20.869565217391308" as="geometry" />
        </mxCell>
        <mxCell id="qmUUbvtYqptl31vacQ3r-33" style="edgeStyle=orthogonalEdgeStyle;rounded=0;orthogonalLoop=1;jettySize=auto;html=1;exitX=0.5;exitY=1;exitDx=0;exitDy=0;entryX=0.5;entryY=0;entryDx=0;entryDy=0;strokeWidth=2;fontSize=13;fontStyle=1;endSize=0;" parent="qmUUbvtYqptl31vacQ3r-1" source="qmUUbvtYqptl31vacQ3r-20" target="qmUUbvtYqptl31vacQ3r-32" edge="1">
          <mxGeometry relative="1" as="geometry">
            <Array as="points">
              <mxPoint x="208.75" y="313.0434782608695" />
              <mxPoint x="177.75" y="313.0434782608695" />
            </Array>
          </mxGeometry>
        </mxCell>
        <mxCell id="qmUUbvtYqptl31vacQ3r-34" style="edgeStyle=orthogonalEdgeStyle;rounded=0;orthogonalLoop=1;jettySize=auto;html=1;exitX=0.5;exitY=1;exitDx=0;exitDy=0;entryX=0;entryY=0.5;entryDx=0;entryDy=0;strokeWidth=2;fontSize=13;fontStyle=1;endSize=0;" parent="qmUUbvtYqptl31vacQ3r-1" source="qmUUbvtYqptl31vacQ3r-35" target="qmUUbvtYqptl31vacQ3r-24" edge="1">
          <mxGeometry relative="1" as="geometry" />
        </mxCell>
        <mxCell id="qmUUbvtYqptl31vacQ3r-35" value="Feature2" style="rounded=1;whiteSpace=wrap;html=1;fillColor=#e1d5e7;strokeColor=#9673a6;strokeWidth=2;fontSize=13;fontStyle=1" parent="qmUUbvtYqptl31vacQ3r-1" vertex="1">
          <mxGeometry x="70" y="333.91304347826093" width="58.75" height="20.869565217391308" as="geometry" />
        </mxCell>
        <mxCell id="qmUUbvtYqptl31vacQ3r-36" style="edgeStyle=orthogonalEdgeStyle;rounded=0;orthogonalLoop=1;jettySize=auto;html=1;exitX=0.5;exitY=1;exitDx=0;exitDy=0;entryX=0.5;entryY=0;entryDx=0;entryDy=0;strokeWidth=2;fontSize=13;fontStyle=1;endSize=0;" parent="qmUUbvtYqptl31vacQ3r-1" source="qmUUbvtYqptl31vacQ3r-18" target="qmUUbvtYqptl31vacQ3r-35" edge="1">
          <mxGeometry relative="1" as="geometry">
            <Array as="points">
              <mxPoint x="68.75" y="313.0434782608695" />
              <mxPoint x="99.75" y="313.0434782608695" />
            </Array>
          </mxGeometry>
        </mxCell>
        <mxCell id="qmUUbvtYqptl31vacQ3r-37" style="edgeStyle=orthogonalEdgeStyle;rounded=0;orthogonalLoop=1;jettySize=auto;html=1;exitX=0.5;exitY=1;exitDx=0;exitDy=0;entryX=1;entryY=0.5;entryDx=0;entryDy=0;strokeWidth=2;fontSize=13;fontStyle=1;endSize=0;" parent="qmUUbvtYqptl31vacQ3r-1" source="qmUUbvtYqptl31vacQ3r-38" target="qmUUbvtYqptl31vacQ3r-24" edge="1">
          <mxGeometry relative="1" as="geometry" />
        </mxCell>
        <mxCell id="qmUUbvtYqptl31vacQ3r-38" value="Feature4" style="rounded=1;whiteSpace=wrap;html=1;fillColor=#e1d5e7;strokeColor=#9673a6;strokeWidth=2;fontSize=13;fontStyle=1" parent="qmUUbvtYqptl31vacQ3r-1" vertex="1">
          <mxGeometry x="218.75" y="333.91304347826093" width="58.75" height="20.869565217391308" as="geometry" />
        </mxCell>
        <mxCell id="qmUUbvtYqptl31vacQ3r-39" style="edgeStyle=orthogonalEdgeStyle;rounded=0;orthogonalLoop=1;jettySize=auto;html=1;exitX=0.5;exitY=1;exitDx=0;exitDy=0;entryX=0.5;entryY=0;entryDx=0;entryDy=0;strokeWidth=2;fontSize=13;fontStyle=1;endSize=0;" parent="qmUUbvtYqptl31vacQ3r-1" source="qmUUbvtYqptl31vacQ3r-20" target="qmUUbvtYqptl31vacQ3r-38" edge="1">
          <mxGeometry relative="1" as="geometry">
            <Array as="points">
              <mxPoint x="208.75" y="313.0434782608695" />
              <mxPoint x="247.75" y="313.0434782608695" />
            </Array>
          </mxGeometry>
        </mxCell>
        <mxCell id="qmUUbvtYqptl31vacQ3r-41" value="" style="endArrow=classic;html=1;rounded=0;entryX=0.5;entryY=0;entryDx=0;entryDy=0;strokeWidth=2;endSize=0;" parent="1" target="qmUUbvtYqptl31vacQ3r-4" edge="1">
          <mxGeometry width="50" height="50" relative="1" as="geometry">
            <mxPoint x="239" y="595" as="sourcePoint" />
            <mxPoint x="550.5" y="795" as="targetPoint" />
          </mxGeometry>
        </mxCell>
        <mxCell id="qmUUbvtYqptl31vacQ3r-42" value="&lt;b&gt;&lt;font style=&quot;font-size: 13px;&quot;&gt;$$X$$&lt;/font&gt;&lt;/b&gt;" style="edgeLabel;html=1;align=center;verticalAlign=middle;resizable=0;points=[];" parent="qmUUbvtYqptl31vacQ3r-41" vertex="1" connectable="0">
          <mxGeometry x="-0.4454" relative="1" as="geometry">
            <mxPoint x="-1" y="-25" as="offset" />
          </mxGeometry>
        </mxCell>
        <mxCell id="qmUUbvtYqptl31vacQ3r-27" style="edgeStyle=orthogonalEdgeStyle;rounded=0;orthogonalLoop=1;jettySize=auto;html=1;exitX=0.5;exitY=1;exitDx=0;exitDy=0;endSize=0;strokeWidth=2;entryX=0.5;entryY=0;entryDx=0;entryDy=0;" parent="1" source="qmUUbvtYqptl31vacQ3r-28" edge="1" target="qmUUbvtYqptl31vacQ3r-54">
          <mxGeometry relative="1" as="geometry">
            <mxPoint x="530" y="585" as="targetPoint" />
            <Array as="points">
              <mxPoint x="237" y="1035" />
              <mxPoint x="420" y="1035" />
              <mxPoint x="420" y="595" />
              <mxPoint x="570" y="595" />
              <mxPoint x="570" y="635" />
              <mxPoint x="625" y="635" />
            </Array>
          </mxGeometry>
        </mxCell>
        <mxCell id="Amgs6Zh0fmxoLv0UB_4L-5" value="&lt;b style=&quot;border-color: var(--border-color);&quot;&gt;&lt;font style=&quot;border-color: var(--border-color); font-size: 13px;&quot;&gt;&lt;svg style=&quot;vertical-align: 0px;&quot; xmlns:xlink=&quot;http://www.w3.org/1999/xlink&quot; viewBox=&quot;0 -726.2 1492.5 726.2&quot; role=&quot;img&quot; height=&quot;1.643ex&quot; width=&quot;3.377ex&quot; xmlns=&quot;http://www.w3.org/2000/svg&quot;&gt;&lt;defs&gt;&lt;path d=&quot;M42 0H40Q26 0 26 11Q26 15 29 27Q33 41 36 43T55 46Q141 49 190 98Q200 108 306 224T411 342Q302 620 297 625Q288 636 234 637H206Q200 643 200 645T202 664Q206 677 212 683H226Q260 681 347 681Q380 681 408 681T453 682T473 682Q490 682 490 671Q490 670 488 658Q484 643 481 640T465 637Q434 634 411 620L488 426L541 485Q646 598 646 610Q646 628 622 635Q617 635 609 637Q594 637 594 648Q594 650 596 664Q600 677 606 683H618Q619 683 643 683T697 681T738 680Q828 680 837 683H845Q852 676 852 672Q850 647 840 637H824Q790 636 763 628T722 611T698 593L687 584Q687 585 592 480L505 384Q505 383 536 304T601 142T638 56Q648 47 699 46Q734 46 734 37Q734 35 732 23Q728 7 725 4T711 1Q708 1 678 1T589 2Q528 2 496 2T461 1Q444 1 444 10Q444 11 446 25Q448 35 450 39T455 44T464 46T480 47T506 54Q523 62 523 64Q522 64 476 181L429 299Q241 95 236 84Q232 76 232 72Q232 53 261 47Q262 47 267 47T273 46Q276 46 277 46T280 45T283 42T284 35Q284 26 282 19Q279 6 276 4T261 1Q258 1 243 1T201 2T142 2Q64 2 42 0Z&quot; id=&quot;MJX-19-TEX-I-1D44B&quot;&gt;&lt;/path&gt;&lt;path d=&quot;M580 385Q580 406 599 424T641 443Q659 443 674 425T690 368Q690 339 671 253Q656 197 644 161T609 80T554 12T482 -11Q438 -11 404 5T355 48Q354 47 352 44Q311 -11 252 -11Q226 -11 202 -5T155 14T118 53T104 116Q104 170 138 262T173 379Q173 380 173 381Q173 390 173 393T169 400T158 404H154Q131 404 112 385T82 344T65 302T57 280Q55 278 41 278H27Q21 284 21 287Q21 293 29 315T52 366T96 418T161 441Q204 441 227 416T250 358Q250 340 217 250T184 111Q184 65 205 46T258 26Q301 26 334 87L339 96V119Q339 122 339 128T340 136T341 143T342 152T345 165T348 182T354 206T362 238T373 281Q402 395 406 404Q419 431 449 431Q468 431 475 421T483 402Q483 389 454 274T422 142Q420 131 420 107V100Q420 85 423 71T442 42T487 26Q558 26 600 148Q609 171 620 213T632 273Q632 306 619 325T593 357T580 385Z&quot; id=&quot;MJX-19-TEX-I-1D464&quot;&gt;&lt;/path&gt;&lt;/defs&gt;&lt;g transform=&quot;scale(1,-1)&quot; stroke-width=&quot;0&quot; fill=&quot;currentColor&quot; stroke=&quot;currentColor&quot;&gt;&lt;g data-mml-node=&quot;math&quot;&gt;&lt;g data-mml-node=&quot;msup&quot;&gt;&lt;g data-mml-node=&quot;mi&quot;&gt;&lt;use xlink:href=&quot;#MJX-19-TEX-I-1D44B&quot; data-c=&quot;1D44B&quot;&gt;&lt;/use&gt;&lt;/g&gt;&lt;g data-mjx-texclass=&quot;ORD&quot; transform=&quot;translate(936.2,413) scale(0.707)&quot; data-mml-node=&quot;TeXAtom&quot;&gt;&lt;g data-mml-node=&quot;mi&quot;&gt;&lt;use xlink:href=&quot;#MJX-19-TEX-I-1D464&quot; data-c=&quot;1D464&quot;&gt;&lt;/use&gt;&lt;/g&gt;&lt;/g&gt;&lt;/g&gt;&lt;/g&gt;&lt;/g&gt;&lt;/svg&gt;&lt;/font&gt;&lt;/b&gt;" style="edgeLabel;html=1;align=center;verticalAlign=middle;resizable=0;points=[];" vertex="1" connectable="0" parent="qmUUbvtYqptl31vacQ3r-27">
          <mxGeometry x="-0.1038" relative="1" as="geometry">
            <mxPoint as="offset" />
          </mxGeometry>
        </mxCell>
        <mxCell id="Amgs6Zh0fmxoLv0UB_4L-8" value="" style="rounded=1;whiteSpace=wrap;html=1;fillColor=none;strokeWidth=2;dashed=1;glass=0;strokeColor=#000000;" vertex="1" parent="1">
          <mxGeometry x="90" y="560" width="310" height="500" as="geometry" />
        </mxCell>
        <mxCell id="Amgs6Zh0fmxoLv0UB_4L-9" value="" style="rounded=1;whiteSpace=wrap;html=1;fillColor=none;strokeWidth=2;dashed=1;strokeColor=#000000;" vertex="1" parent="1">
          <mxGeometry x="437.5" y="560" width="282.5" height="500" as="geometry" />
        </mxCell>
        <mxCell id="Amgs6Zh0fmxoLv0UB_4L-10" value="" style="endArrow=none;html=1;rounded=0;exitX=0;exitY=1;exitDx=0;exitDy=0;entryX=0.091;entryY=0.005;entryDx=0;entryDy=0;entryPerimeter=0;" edge="1" parent="1" source="jbyKAua8zMZjnr2aoyAC-1" target="Amgs6Zh0fmxoLv0UB_4L-8">
          <mxGeometry width="50" height="50" relative="1" as="geometry">
            <mxPoint x="420" y="760" as="sourcePoint" />
            <mxPoint x="470" y="710" as="targetPoint" />
          </mxGeometry>
        </mxCell>
        <mxCell id="Amgs6Zh0fmxoLv0UB_4L-11" value="" style="endArrow=none;html=1;rounded=0;exitX=1;exitY=1;exitDx=0;exitDy=0;entryX=0.951;entryY=0.022;entryDx=0;entryDy=0;entryPerimeter=0;" edge="1" parent="1" source="jbyKAua8zMZjnr2aoyAC-1" target="Amgs6Zh0fmxoLv0UB_4L-8">
          <mxGeometry width="50" height="50" relative="1" as="geometry">
            <mxPoint x="260" y="473" as="sourcePoint" />
            <mxPoint x="119" y="573" as="targetPoint" />
          </mxGeometry>
        </mxCell>
        <mxCell id="Amgs6Zh0fmxoLv0UB_4L-13" value="" style="endArrow=none;html=1;rounded=0;exitX=0.071;exitY=0.008;exitDx=0;exitDy=0;entryX=0;entryY=1;entryDx=0;entryDy=0;exitPerimeter=0;" edge="1" parent="1" source="Amgs6Zh0fmxoLv0UB_4L-9" target="jbyKAua8zMZjnr2aoyAC-2">
          <mxGeometry width="50" height="50" relative="1" as="geometry">
            <mxPoint x="280" y="493" as="sourcePoint" />
            <mxPoint x="139" y="593" as="targetPoint" />
          </mxGeometry>
        </mxCell>
        <mxCell id="Amgs6Zh0fmxoLv0UB_4L-14" value="" style="endArrow=none;html=1;rounded=0;exitX=0.924;exitY=0.011;exitDx=0;exitDy=0;entryX=0.986;entryY=1.015;entryDx=0;entryDy=0;entryPerimeter=0;exitPerimeter=0;" edge="1" parent="1" source="Amgs6Zh0fmxoLv0UB_4L-9" target="jbyKAua8zMZjnr2aoyAC-2">
          <mxGeometry width="50" height="50" relative="1" as="geometry">
            <mxPoint x="290" y="503" as="sourcePoint" />
            <mxPoint x="580" y="470" as="targetPoint" />
          </mxGeometry>
        </mxCell>
      </root>
    </mxGraphModel>
  </diagram>
</mxfile>
